<?xml version="1.0" encoding="UTF-8" standalone="no"?>
<!-- Created with Inkscape (http://www.inkscape.org/) -->

<svg
   xmlns:dc="http://purl.org/dc/elements/1.1/"
   xmlns:cc="http://creativecommons.org/ns#"
   xmlns:rdf="http://www.w3.org/1999/02/22-rdf-syntax-ns#"
   xmlns:svg="http://www.w3.org/2000/svg"
   xmlns="http://www.w3.org/2000/svg"
   xmlns:sodipodi="http://sodipodi.sourceforge.net/DTD/sodipodi-0.dtd"
   xmlns:inkscape="http://www.inkscape.org/namespaces/inkscape"
   width="80.000092mm"
   height="80.000092mm"
   viewBox="0 0 283.46489 283.46489"
   id="svg3552"
   version="1.1"
   inkscape:version="0.91 r13725"
   sodipodi:docname="launcher_bfb.svg">
  <defs
     id="defs3554" />
  <sodipodi:namedview
     id="base"
     pagecolor="#ffffff"
     bordercolor="#666666"
     borderopacity="1.0"
     inkscape:pageopacity="0.0"
     inkscape:pageshadow="2"
     inkscape:zoom="3.959798"
     inkscape:cx="209.16207"
     inkscape:cy="129.50682"
     inkscape:document-units="px"
     inkscape:current-layer="layer1"
     showgrid="false"
     fit-margin-top="0"
     fit-margin-left="0"
     fit-margin-right="0"
     fit-margin-bottom="0"
     inkscape:window-width="3070"
     inkscape:window-height="1752"
     inkscape:window-x="130"
     inkscape:window-y="48"
     inkscape:window-maximized="1" />
  <metadata
     id="metadata3557">
    <rdf:RDF>
      <cc:Work
         rdf:about="">
        <dc:format>image/svg+xml</dc:format>
        <dc:type
           rdf:resource="http://purl.org/dc/dcmitype/StillImage" />
        <dc:title></dc:title>
      </cc:Work>
    </rdf:RDF>
  </metadata>
  <g
     inkscape:label="Layer 1"
     inkscape:groupmode="layer"
     id="layer1"
     transform="translate(-233.26755,-390.62975)">
    <path
       d="m 374.99865,434.31885 c -54.14807,0 -98.042,43.89524 -98.042,98.0447 0,54.146 43.89524,98.042 98.04332,98.042 54.14808,0 98.04338,-43.89669 98.04338,-98.042 0,-54.14946 -43.89662,-98.0447 -98.0447,-98.0447 z m 33.68765,27.22145 c 2.10943,0.0546 4.23448,0.62174 6.19061,1.75103 6.26102,3.61508 8.40462,11.61772 4.78953,17.87875 -3.61301,6.25825 -11.61572,8.40392 -17.87605,4.78815 -6.25895,-3.61301 -8.40324,-11.61642 -4.78953,-17.87468 2.48538,-4.30447 7.0447,-6.66369 11.68544,-6.54325 z m -33.68495,13.95791 c 5.26352,0 10.35473,0.73001 15.19144,2.06854 0.85501,5.25799 3.97715,10.10217 8.95221,12.97432 4.96883,2.86937 10.71762,3.15424 15.69407,1.27406 9.67965,9.5164 15.97727,22.46547 16.89521,36.88429 l -18.65427,0.27158 c -1.71761,-19.52947 -18.10301,-34.8455 -38.07866,-34.8455 -5.75605,0 -11.21202,1.28078 -16.10752,3.55871 l -9.09271,-16.29797 c 7.5968,-3.76311 16.148,-5.88803 25.20023,-5.88803 z m -31.54758,9.5521 9.56967,16.03053 c -9.83046,6.91888 -16.25882,18.34499 -16.25882,31.28139 0,12.93849 6.42836,24.36391 16.25882,31.2814 l -9.57099,16.03185 c -11.45537,-7.65282 -19.97647,-19.35314 -23.51547,-33.05809 4.13528,-3.36951 6.77701,-8.50195 6.77701,-14.25384 0,-5.75328 -2.64242,-10.88495 -6.77701,-14.25516 3.53969,-13.70356 12.06141,-25.40457 23.51679,-33.05808 z m -35.12116,34.22402 c 7.22878,0 13.0879,5.85906 13.0879,13.0906 0,7.22809 -5.85981,13.08783 -13.0879,13.08783 -7.23086,0 -13.09053,-5.85974 -13.09053,-13.08783 0,-7.23086 5.85967,-13.0906 13.09053,-13.0906 z m 104.74603,16.48045 18.65564,0.27152 c -0.91656,14.41882 -7.21487,27.36726 -16.89383,36.88435 -4.97644,-1.88086 -10.72523,-1.59531 -15.69407,1.27268 -4.97575,2.87423 -8.09858,7.7191 -8.95359,12.97709 -4.8374,1.33854 -9.92792,2.06847 -15.19144,2.06847 -9.05223,0 -17.60544,-2.12624 -25.20292,-5.88797 l 9.0954,-16.29935 c 4.8962,2.27793 10.35078,3.55739 16.10752,3.55739 19.97565,0 36.36105,-15.31194 38.07729,-34.84418 z m -5.09488,41.26044 c 4.6406,-0.12044 9.19964,2.23795 11.68406,6.54049 3.61439,6.26034 1.46942,14.26235 -4.78953,17.87605 -6.26103,3.6144 -14.26235,1.47011 -17.87743,-4.79091 -3.61301,-6.25826 -1.47011,-14.26028 4.79091,-17.87468 1.95592,-1.12927 4.08264,-1.69623 6.19199,-1.75095 z"
       id="path6"
       inkscape:connector-curvature="0"
       style="fill:#f9f9f9;fill-opacity:1" />
  </g>
</svg>
